<?xml version="1.0" standalone="no"?>
<!DOCTYPE svg PUBLIC "-//W3C//DTD SVG 20010904//EN"
 "http://www.w3.org/TR/2001/REC-SVG-20010904/DTD/svg10.dtd">
<svg version="1.0" xmlns="http://www.w3.org/2000/svg"
 width="1024.000000pt" height="1024.000000pt" viewBox="0 0 1024.000000 1024.000000"
 preserveAspectRatio="xMidYMid meet">
<metadata>
Created by potrace 1.14, written by Peter Selinger 2001-2017
</metadata>
<g transform="translate(0.000000,1024.000000) scale(0.100000,-0.100000)"
fill="#000000" stroke="none">
<path d="M4985 8410 c-201 -32 -344 -144 -406 -321 -22 -61 -23 -80 -27 -400
l-4 -336 -151 -6 c-218 -9 -352 -42 -515 -127 -138 -71 -250 -179 -336 -321
-28 -47 -37 -54 -96 -74 -123 -41 -225 -108 -316 -208 -108 -118 -161 -227
-337 -687 -122 -321 -154 -417 -188 -575 -19 -85 -17 -312 3 -410 19 -91 119
-528 172 -748 20 -82 36 -155 36 -163 0 -8 -13 -32 -29 -54 -15 -21 -34 -53
-41 -70 l-12 -30 -180 0 c-129 0 -188 -4 -212 -14 -109 -45 -101 -204 12 -236
20 -5 115 -10 210 -10 l172 0 0 -115 0 -115 -202 -2 -203 -3 -3 -29 c-4 -30 7
-82 35 -173 l16 -53 2868 0 2867 0 16 48 c29 88 46 185 34 199 -8 10 -59 13
-214 13 l-204 0 0 115 0 115 188 0 c211 0 238 7 280 70 38 57 16 129 -51 170
-29 18 -51 20 -223 20 l-191 0 -19 42 c-10 23 -29 58 -42 76 l-23 34 40 172
c75 319 170 761 182 845 23 163 0 309 -90 573 -56 163 -278 733 -312 800 -88
176 -267 333 -447 394 -62 21 -65 24 -107 95 -86 148 -202 250 -376 333 -149
72 -318 105 -531 106 l-88 0 0 308 c0 335 -7 398 -55 493 -60 118 -143 188
-281 235 -76 26 -89 27 -319 30 -132 2 -267 -1 -300 -6z m-68 -683 c41 -42 84
-71 148 -103 128 -63 204 -77 400 -71 88 2 168 8 178 12 16 7 17 -3 17 -135 0
-97 -5 -162 -16 -204 -35 -136 -132 -263 -241 -314 -51 -24 -70 -27 -158 -27
-90 0 -106 3 -160 29 -111 54 -207 180 -239 312 -10 40 -16 149 -20 339 l-6
280 20 -30 c11 -16 45 -56 77 -88z m-273 -730 c43 -88 127 -191 204 -252 204
-162 495 -181 722 -46 122 73 239 206 284 325 l18 46 123 0 c278 0 470 -64
610 -205 71 -70 130 -166 155 -250 6 -22 15 -105 18 -185 l7 -146 52 -104 c29
-58 77 -152 108 -210 31 -58 74 -140 97 -182 47 -91 89 -135 135 -144 48 -9
82 3 120 41 56 56 52 70 -112 394 l-145 286 0 78 c0 42 4 77 9 77 18 0 136
-127 168 -181 31 -52 182 -432 305 -769 109 -298 119 -404 64 -670 -55 -260
-164 -752 -170 -757 -2 -3 -22 1 -42 7 -23 8 -92 13 -176 13 l-138 -1 0 480 0
480 60 56 c77 70 100 108 100 161 0 33 -6 49 -29 71 -53 54 -125 52 -184 -5
l-36 -35 -29 48 c-30 49 -267 480 -380 692 -73 136 -77 141 -122 169 -45 27
-102 27 -157 0 -36 -18 -51 -34 -86 -96 -121 -216 -217 -323 -343 -383 -96
-46 -171 -60 -336 -60 -147 0 -148 0 -148 23 0 36 -38 87 -77 104 -68 28 -155
-20 -169 -93 l-6 -34 -137 0 c-157 0 -243 16 -327 58 -141 71 -236 167 -333
337 -28 50 -59 100 -69 111 -46 55 -133 69 -202 34 -44 -22 -63 -51 -195 -300
-48 -91 -111 -208 -140 -260 -29 -52 -72 -131 -95 -175 -43 -81 -91 -167 -97
-174 -1 -2 -11 5 -20 16 -29 32 -86 63 -118 63 -36 0 -89 -31 -105 -61 -33
-60 -4 -127 91 -211 l59 -53 2 -480 2 -480 -135 -1 c-74 -1 -154 -7 -178 -13
-23 -7 -44 -11 -46 -9 -2 2 -47 199 -101 438 -97 431 -98 436 -98 570 -1 194
14 246 237 820 116 300 137 347 178 407 38 55 128 153 140 153 5 0 9 -43 9
-97 0 -95 0 -97 -43 -172 -81 -141 -237 -471 -237 -501 0 -42 17 -72 54 -98
56 -38 133 -22 178 39 30 40 211 380 270 506 40 85 41 92 48 228 11 204 46
295 159 418 137 148 322 215 602 216 l137 1 36 -73z m-485 -1232 c61 -280 117
-541 156 -730 57 -276 90 -411 115 -477 43 -115 137 -221 240 -271 l67 -32 5
-220 c4 -215 5 -222 32 -281 33 -73 72 -113 145 -150 48 -23 62 -26 130 -22
80 5 118 19 164 62 l28 26 42 -35 c136 -116 370 -46 437 131 18 49 20 78 20
262 0 114 4 212 8 217 4 6 39 26 77 45 129 63 210 172 260 346 14 49 52 217
85 374 59 287 174 824 186 870 5 23 8 22 31 -25 56 -112 319 -567 355 -615
l38 -50 0 -588 0 -587 -36 -24 c-89 -61 -166 -185 -184 -297 -6 -33 -10 -114
-10 -181 l0 -123 -1305 0 -1305 0 0 113 c-1 238 -33 334 -155 454 l-75 73 0
580 0 580 38 49 c40 54 185 303 303 523 53 99 76 133 80 120 4 -9 17 -62 28
-117z m484 -250 c76 -35 146 -45 325 -45 l152 0 0 -160 0 -159 -32 5 c-181 31
-284 62 -363 109 -69 42 -134 101 -176 162 -27 39 -79 159 -79 183 0 6 26 -8
59 -30 32 -22 83 -51 114 -65z m1353 25 c-36 -89 -79 -152 -143 -210 -101 -93
-202 -131 -450 -174 l-33 -5 0 159 0 160 164 0 c90 0 188 5 217 10 58 11 172
62 229 103 19 14 36 24 38 22 2 -1 -8 -31 -22 -65z m-737 -1005 c1 -6 -8 -11
-19 -12 -23 -2 -25 9 -8 40 11 21 11 21 19 2 4 -11 8 -25 8 -30z m115 -148
c-4 -7 -4 -9 1 -5 4 4 22 -5 40 -20 18 -15 41 -34 52 -43 25 -21 33 -93 30
-290 -2 -167 -11 -189 -73 -189 -62 0 -64 12 -64 308 0 176 3 261 10 257 6 -4
7 -12 4 -18z m-245 -290 c1 -119 -3 -216 -9 -227 -5 -10 -24 -23 -41 -29 -39
-13 -75 5 -85 43 -3 13 -4 112 -2 221 l3 198 25 16 c14 9 41 30 60 48 l35 32
7 -47 c3 -26 7 -141 7 -255z m-1637 -219 c66 -31 132 -94 159 -151 16 -35 19
-67 19 -194 0 -96 -4 -153 -10 -153 -6 0 -10 56 -10 148 0 123 -4 154 -20 189
-36 80 -135 96 -183 31 -19 -25 -21 -43 -21 -187 -1 -142 -3 -161 -20 -180
-25 -27 -61 -27 -80 1 -13 18 -16 54 -16 180 l0 158 -27 30 c-51 57 -147 42
-173 -26 -6 -14 -10 -92 -10 -174 0 -161 -6 -180 -55 -180 -47 0 -55 30 -55
208 0 173 8 212 53 260 54 58 109 72 267 68 110 -2 133 -6 182 -28z m3861 18
c54 -20 104 -61 127 -106 18 -35 20 -59 20 -208 0 -166 -1 -170 -25 -196 -29
-32 -38 -32 -65 -4 -18 20 -20 35 -20 172 0 131 -3 155 -19 182 -26 42 -78 60
-126 44 -57 -19 -65 -47 -65 -217 0 -164 -9 -196 -51 -201 -52 -6 -59 15 -59
179 0 177 -10 211 -66 235 -45 19 -74 12 -114 -24 -38 -33 -50 -97 -50 -259 0
-69 -4 -113 -10 -113 -6 0 -10 56 -10 148 0 134 2 151 24 197 43 91 130 159
223 175 78 13 244 10 286 -4z"/>
<path d="M5390 4361 c13 -10 13 -12 0 -22 -13 -9 -13 -10 0 -6 8 2 15 10 15
17 0 7 -7 15 -15 17 -13 4 -13 3 0 -6z"/>
<path d="M5416 4332 c-3 -5 1 -9 9 -9 8 0 12 4 9 9 -3 4 -7 8 -9 8 -2 0 -6 -4
-9 -8z"/>
<path d="M3000 7342 c-50 -25 -76 -81 -61 -132 30 -102 170 -109 211 -11 23
58 -3 117 -67 150 -29 15 -42 14 -83 -7z"/>
<path d="M7375 7028 c-54 -29 -73 -111 -39 -164 41 -62 114 -67 171 -12 36 34
44 83 22 131 -22 48 -105 73 -154 45z"/>
<path d="M7785 6701 c-73 -23 -105 -94 -70 -161 35 -68 111 -81 169 -29 41 36
55 84 34 125 -23 48 -87 80 -133 65z"/>
<path d="M8613 4840 c0 -25 2 -35 4 -22 2 12 2 32 0 45 -2 12 -4 2 -4 -23z"/>
<path d="M8612 4745 c0 -16 2 -22 5 -12 2 9 2 23 0 30 -3 6 -5 -1 -5 -18z"/>
<path d="M8612 4680 c0 -14 2 -19 5 -12 2 6 2 18 0 25 -3 6 -5 1 -5 -13z"/>
<path d="M8611 4614 c0 -11 3 -14 6 -6 3 7 2 16 -1 19 -3 4 -6 -2 -5 -13z"/>
<path d="M8612 3980 c0 -14 2 -19 5 -12 2 6 2 18 0 25 -3 6 -5 1 -5 -13z"/>
<path d="M8610 3804 c-1 -272 -12 -584 -25 -664 -67 -409 -304 -775 -649
-1002 -161 -106 -291 -163 -491 -216 l-100 -26 -2040 -4 c-1853 -3 -2049 -1
-2140 14 -120 19 -192 41 -354 105 -68 27 -126 47 -129 45 -2 -3 7 -8 22 -12
14 -3 24 -10 21 -14 -3 -4 1 -8 8 -7 32 1 48 -4 42 -13 -3 -6 1 -10 10 -10 12
0 15 -6 10 -20 -5 -15 -3 -18 9 -14 9 3 16 1 16 -5 0 -6 12 -11 28 -12 l27 -1
-25 -7 -25 -7 28 -7 c15 -4 27 -13 27 -20 0 -9 2 -9 9 1 6 10 12 5 21 -18 7
-18 18 -29 25 -26 7 2 15 -4 18 -15 3 -10 13 -22 24 -26 10 -4 25 -16 33 -27
14 -20 14 -20 21 4 6 23 7 23 8 3 1 -16 6 -20 21 -16 22 6 28 -12 8 -21 -7 -3
-4 -4 7 -1 21 5 47 -7 47 -21 -1 -5 6 -8 14 -6 8 2 17 -4 21 -13 3 -10 8 -13
12 -6 5 7 15 6 32 -3 42 -21 77 -27 82 -13 3 7 6 5 6 -5 1 -11 -6 -18 -16 -19
-13 0 -11 -3 7 -12 14 -6 28 -16 32 -21 4 -6 12 -5 22 3 11 9 20 10 35 1 12
-6 21 -7 21 -3 0 4 6 -2 14 -13 13 -17 15 -17 21 -2 9 23 37 11 30 -13 -6 -17
-2 -19 27 -17 24 2 32 -1 30 -11 -3 -12 0 -12 12 -2 9 7 13 17 10 22 -3 5 1 9
10 9 8 0 16 -3 18 -8 4 -9 107 -42 131 -42 10 0 17 5 17 10 0 6 -7 10 -15 10
-8 0 -15 5 -15 11 0 6 7 8 16 5 9 -3 20 -6 25 -6 5 0 8 -5 6 -11 -4 -19 21
-21 26 -2 4 14 5 13 6 -5 1 -16 5 -21 14 -15 18 12 110 13 124 1 7 -5 17 -7
22 -4 5 4 12 2 16 -4 9 -15 28 -12 22 4 -3 8 1 17 9 20 23 9 24 8 25 -16 0
-13 3 -17 6 -10 2 6 11 12 19 12 8 0 14 7 14 15 0 8 5 15 10 15 6 0 10 -7 10
-15 0 -20 17 -19 29 3 9 15 10 15 11 -5 0 -18 6 -22 28 -22 72 0 123 -5 128
-13 3 -5 12 -4 20 3 8 6 25 9 40 6 18 -3 24 -1 20 9 -3 8 1 14 9 14 8 0 15 -5
15 -10 0 -6 11 -8 26 -4 23 6 25 4 19 -15 -4 -12 -2 -21 4 -21 6 0 11 7 11 15
0 8 5 15 10 15 6 0 10 -7 10 -15 0 -8 5 -15 10 -15 6 0 10 7 10 15 0 14 15 19
50 17 8 0 41 -3 73 -6 45 -3 57 -1 57 10 0 8 4 14 10 14 5 0 7 -6 4 -14 -3 -7
2 -16 10 -19 9 -4 15 -1 13 5 -1 6 4 13 11 15 6 3 12 -2 12 -11 0 -19 11 -21
28 -4 9 9 12 8 12 -5 0 -19 15 -23 25 -6 5 6 12 4 21 -8 12 -17 13 -16 15 7 1
17 3 20 6 8 3 -12 13 -18 31 -17 24 2 24 2 5 6 -25 5 -32 23 -8 23 7 0 19 8
24 18 9 15 10 15 11 1 0 -25 29 -32 56 -14 13 9 24 11 24 5 0 -5 -4 -10 -10
-10 -5 0 -10 -4 -10 -10 0 -5 11 -9 25 -8 16 2 24 7 21 15 -3 7 1 13 8 13 8 0
16 -9 19 -20 4 -16 14 -20 43 -20 41 0 42 10 0 13 -14 1 -25 7 -25 12 0 6 11
9 24 7 19 -3 24 0 19 12 -3 9 -2 16 4 16 5 0 12 -9 15 -20 3 -11 13 -20 22
-20 9 0 13 5 10 10 -12 19 9 10 37 -17 15 -15 28 -22 28 -15 0 6 -4 14 -10 17
-5 3 -10 14 -10 23 1 15 2 15 15 -2 7 -10 19 -15 25 -11 9 5 10 1 5 -16 -7
-23 -7 -24 9 -4 14 17 17 18 27 5 8 -11 12 -12 16 -2 7 17 23 15 23 -2 0 -8 5
-18 11 -22 9 -5 10 1 5 21 -6 25 -6 26 9 12 14 -15 18 -14 37 5 14 14 23 18
26 10 2 -7 11 -12 19 -12 13 0 13 -3 3 -15 -11 -13 -15 -13 -22 -3 -7 10 -9
10 -5 -2 5 -17 38 -14 49 3 5 9 10 9 20 -1 17 -17 26 -15 30 5 2 12 15 17 51
19 26 2 47 -1 47 -6 0 -16 22 -11 36 8 9 11 13 13 14 4 0 -8 7 -11 19 -7 12 3
21 0 25 -10 3 -8 15 -15 27 -15 22 0 22 0 3 22 -18 20 -18 21 -1 15 10 -4 23
-7 29 -7 6 0 8 -7 4 -15 -3 -9 0 -15 9 -15 8 0 14 6 12 13 -3 16 54 22 64 6 6
-10 11 -10 24 1 14 11 18 12 25 0 7 -11 13 -11 40 0 27 11 33 11 42 -1 7 -10
8 -8 3 9 -7 26 10 30 24 5 8 -15 11 -15 27 -3 13 12 18 12 21 3 3 -8 21 -13
43 -13 27 0 42 -6 49 -17 5 -10 13 -14 17 -10 5 5 2 12 -6 17 -8 5 -11 12 -7
16 3 4 13 1 22 -6 10 -8 15 -9 15 -1 0 6 6 11 14 11 8 0 17 8 19 18 4 16 5 16
6 0 1 -19 31 -26 31 -8 0 6 5 10 11 10 8 0 8 -4 -1 -15 -6 -8 -8 -20 -4 -26 5
-9 10 -9 18 2 11 14 51 39 61 39 3 0 5 -7 5 -15 0 -10 10 -15 30 -15 24 0 30
4 31 23 1 12 5 4 9 -18 6 -31 7 -34 9 -12 0 17 7 27 16 27 11 0 14 -7 10 -27
-3 -16 -2 -21 1 -13 10 23 26 30 52 23 15 -3 27 -1 33 8 7 11 12 12 29 2 25
-17 50 -17 50 0 0 9 2 9 9 -1 6 -11 11 -10 25 3 15 15 16 15 14 -6 -2 -15 3
-24 15 -27 10 -2 17 3 17 12 0 9 8 16 20 16 14 0 20 -7 20 -22 1 -23 1 -23 16
-3 15 20 15 20 29 1 14 -19 15 -19 34 3 21 24 41 21 42 -7 0 -12 3 -11 9 6 13
30 24 28 16 -3 -8 -31 -3 -31 24 -3 14 15 20 17 20 7 0 -10 13 -14 49 -14 47
0 49 1 47 25 -2 14 -1 19 1 13 6 -16 16 -16 31 -1 9 9 12 8 12 -4 0 -9 -5 -20
-10 -23 -6 -4 -8 -11 -4 -17 3 -5 17 8 31 29 13 21 21 29 18 18 -4 -11 -9 -29
-11 -40 -3 -15 -2 -14 6 4 8 18 15 22 35 17 14 -4 35 -1 46 5 28 15 48 -3 29
-26 -11 -13 -10 -14 4 -9 9 3 16 15 16 25 0 24 9 24 26 2 11 -16 17 -16 45 -6
17 7 36 10 40 7 5 -3 9 3 10 13 0 10 3 13 6 6 7 -18 23 -16 23 3 0 26 20 4 21
-24 1 -27 1 -27 8 3 6 30 15 33 39 12 10 -8 16 -7 22 2 4 7 22 14 41 15 18 1
34 7 37 14 2 6 8 12 14 12 7 0 7 -5 -1 -13 -6 -8 -8 -16 -5 -19 8 -8 44 3 44
13 0 14 38 11 44 -3 5 -10 7 -10 12 0 3 6 16 12 29 12 13 0 31 7 40 16 18 19
87 27 96 12 4 -5 22 4 42 21 22 20 41 29 51 25 11 -4 16 -1 16 11 0 12 5 15
16 11 21 -8 41 4 24 14 -9 5 -9 9 -1 14 6 4 11 2 11 -3 0 -13 57 -15 65 -2 3
5 -5 12 -17 15 -13 3 -2 3 25 2 26 -2 47 1 47 6 0 6 9 8 21 5 15 -4 19 -2 15
9 -3 8 -1 14 4 14 6 0 10 6 10 13 0 18 51 39 66 26 9 -7 15 -2 25 20 11 24 17
28 31 20 14 -7 18 -6 18 6 0 8 4 15 9 15 5 0 13 9 16 20 9 30 28 12 20 -19 -8
-31 -3 -27 17 16 13 26 13 30 2 26 -17 -6 -18 2 -3 28 6 12 17 18 24 15 8 -3
17 -1 20 4 4 6 1 10 -4 10 -6 0 -11 5 -11 12 0 9 3 9 12 0 7 -7 18 -12 26 -12
12 0 12 2 1 17 -13 15 -11 16 11 10 15 -3 33 0 44 9 11 8 15 14 10 14 -6 0
-15 -5 -21 -11 -6 -6 -17 -8 -24 -4 -16 10 17 36 36 29 16 -6 22 3 29 42 3 16
17 39 31 52 21 18 23 23 11 28 -8 3 -12 12 -9 21 4 10 8 11 13 3 5 -8 14 -3
29 16 23 29 28 50 9 38 -8 -5 -9 -2 -3 12 4 10 8 26 9 34 1 9 5 21 10 28 4 7
8 26 8 43 1 16 4 25 8 19 4 -6 20 9 39 35 34 47 35 85 4 85 -11 0 -7 8 13 26
21 19 25 27 15 31 -10 4 -8 10 10 20 13 8 16 12 6 9 -15 -5 -16 -2 -7 14 6 11
7 20 3 19 -19 -3 -27 2 -16 9 7 4 14 21 16 38 2 16 7 35 11 42 4 7 2 12 -4 12
-7 0 -10 6 -7 14 3 7 2 29 -2 49 -5 19 -4 41 1 48 7 11 9 11 7 -1 -1 -8 -1
-24 1 -35 1 -19 2 -19 9 -1 4 10 4 40 1 67 -4 28 -2 53 4 59 7 7 6 10 -2 10
-7 0 -12 9 -12 21 0 13 -4 18 -12 13 -7 -4 -8 -3 -4 4 4 7 15 12 24 12 16 1
16 1 1 10 -14 8 -15 17 -8 47 11 49 11 53 -1 53 -5 0 -10 -8 -10 -17 0 -9 -3
-14 -6 -10 -13 12 8 47 29 48 l22 0 -22 9 c-22 9 -32 30 -14 30 14 0 20 39 8
47 -6 3 -13 1 -15 -5 -4 -14 -22 -16 -22 -3 0 5 9 13 20 16 24 8 18 24 -8 20
-9 -1 -11 0 -4 2 8 3 10 12 7 24 -4 13 -2 19 9 19 9 0 16 7 16 15 0 18 -16 20
-23 3 -3 -7 -3 2 0 20 5 26 2 32 -13 32 -17 0 -17 1 2 15 10 8 15 15 9 15 -5
1 -1 5 10 10 16 7 16 9 4 9 -22 1 -28 73 -28 340 0 112 -3 206 -6 209 -3 3 -5
-48 -5 -114z m37 -956 c-3 -8 -6 -5 -6 6 -1 11 2 17 5 13 3 -3 4 -12 1 -19z
m-37 -399 c0 -23 -27 -55 -38 -44 -4 4 -1 10 6 12 6 3 12 16 12 29 0 13 5 24
10 24 6 0 10 -9 10 -21z m-100 -244 c0 -8 -4 -15 -10 -15 -5 0 -10 7 -10 15 0
8 5 15 10 15 6 0 10 -7 10 -15z m-110 -156 c0 -6 -4 -7 -10 -4 -5 3 -10 11
-10 16 0 6 5 7 10 4 6 -3 10 -11 10 -16z m-30 -19 c0 -5 -4 -10 -10 -10 -5 0
-10 5 -10 10 0 6 5 10 10 10 6 0 10 -4 10 -10z m-5443 -132 c-3 -8 -6 -5 -6 6
-1 11 2 17 5 13 3 -3 4 -12 1 -19z m48 -48 c3 -5 1 -10 -4 -10 -6 0 -11 5 -11
10 0 6 2 10 4 10 3 0 8 -4 11 -10z m5192 -15 c9 -24 -1 -27 -15 -5 -8 13 -8
20 -2 20 6 0 13 -7 17 -15z m-130 -81 c-3 -3 -12 -4 -19 -1 -8 3 -5 6 6 6 11
1 17 -2 13 -5z m-432 -143 c-3 -6 -13 -11 -21 -11 -8 0 -12 5 -9 10 4 6 11 8
16 5 5 -4 9 -1 9 6 0 7 3 10 6 6 3 -3 3 -10 -1 -16z m45 3 c0 -8 -4 -12 -10
-9 -5 3 -10 10 -10 16 0 5 5 9 10 9 6 0 10 -7 10 -16z m-1323 -36 c-3 -8 -6
-5 -6 6 -1 11 2 17 5 13 3 -3 4 -12 1 -19z m-2160 -10 c-3 -8 -6 -5 -6 6 -1
11 2 17 5 13 3 -3 4 -12 1 -19z m1563 18 c0 -3 -4 -8 -10 -11 -5 -3 -10 -1
-10 4 0 6 5 11 10 11 6 0 10 -2 10 -4z m-410 -10 c0 -3 -4 -8 -10 -11 -5 -3
-10 -1 -10 4 0 6 5 11 10 11 6 0 10 -2 10 -4z m733 -13 c-7 -2 -19 -2 -25 0
-7 3 -2 5 12 5 14 0 19 -2 13 -5z m692 -2 c3 -5 1 -12 -5 -16 -5 -3 -10 1 -10
9 0 18 6 21 15 7z m532 3 c-3 -3 -12 -4 -19 -1 -8 3 -5 6 6 6 11 1 17 -2 13
-5z m-57 -14 c0 -5 -4 -10 -10 -10 -5 0 -10 5 -10 10 0 6 5 10 10 10 6 0 10
-4 10 -10z"/>
<path d="M2509 2852 c5 -9 30 -45 55 -79 155 -212 429 -377 684 -413 54 -8
663 -10 2047 -8 l1970 4 90 25 c128 37 219 77 321 144 135 88 254 210 313 323
l12 22 -2751 0 c-2630 0 -2750 -1 -2741 -18z"/>
<path d="M8476 2093 c-6 -14 -5 -15 5 -6 7 7 10 15 7 18 -3 3 -9 -2 -12 -12z"/>
<path d="M8315 1920 c3 -5 10 -10 16 -10 5 0 9 5 9 10 0 6 -7 10 -16 10 -8 0
-12 -4 -9 -10z"/>
<path d="M8125 1770 c-3 -5 -1 -10 4 -10 6 0 11 5 11 10 0 6 -2 10 -4 10 -3 0
-8 -4 -11 -10z"/>
<path d="M7880 1660 c0 -5 4 -10 9 -10 6 0 13 5 16 10 3 6 -1 10 -9 10 -9 0
-16 -4 -16 -10z"/>
<path d="M7830 1640 c0 -6 7 -10 15 -10 8 0 15 2 15 4 0 2 -7 6 -15 10 -8 3
-15 1 -15 -4z"/>
<path d="M7688 1603 c7 -3 16 -2 19 1 4 3 -2 6 -13 5 -11 0 -14 -3 -6 -6z"/>
<path d="M4865 1541 c-3 -5 -1 -12 5 -16 5 -3 10 1 10 9 0 18 -6 21 -15 7z"/>
<path d="M5615 1530 c-3 -5 -1 -10 4 -10 6 0 11 5 11 10 0 6 -2 10 -4 10 -3 0
-8 -4 -11 -10z"/>
<path d="M5757 1529 c7 -7 15 -10 18 -7 3 3 -2 9 -12 12 -14 6 -15 5 -6 -5z"/>
<path d="M6770 1524 c0 -8 5 -12 10 -9 6 3 10 10 10 16 0 5 -4 9 -10 9 -5 0
-10 -7 -10 -16z"/>
<path d="M7055 1530 c3 -5 8 -10 11 -10 2 0 4 5 4 10 0 6 -5 10 -11 10 -5 0
-7 -4 -4 -10z"/>
<path d="M5108 1523 c7 -3 16 -2 19 1 4 3 -2 6 -13 5 -11 0 -14 -3 -6 -6z"/>
<path d="M7088 1513 c7 -3 16 -2 19 1 4 3 -2 6 -13 5 -11 0 -14 -3 -6 -6z"/>
<path d="M4138 1273 c-27 -7 -30 -34 -26 -217 3 -152 5 -169 22 -182 22 -16
143 -19 216 -5 97 19 144 129 85 199 -22 26 -23 31 -10 42 9 7 15 29 15 55 0
53 -28 91 -78 105 -36 10 -190 12 -224 3z m202 -117 c0 -28 -16 -36 -76 -36
-42 0 -44 1 -44 30 l0 30 60 0 c57 0 60 -1 60 -24z m16 -150 c9 -39 -2 -46
-72 -46 l-64 0 0 35 0 35 65 0 c60 0 65 -2 71 -24z"/>
<path d="M4540 1260 c-18 -18 -20 -33 -20 -143 0 -150 17 -196 90 -234 93 -50
199 -19 248 72 19 34 28 266 11 296 -12 24 -44 33 -68 20 -17 -10 -20 -24 -23
-141 -3 -116 -5 -132 -24 -150 -28 -29 -79 -29 -107 -1 -20 19 -22 34 -25 152
-4 128 -4 130 -28 140 -33 12 -31 12 -54 -11z"/>
<path d="M4990 1272 c-30 -6 -35 -12 -43 -47 -5 -22 -7 -107 -5 -188 4 -174 5
-177 99 -177 144 0 224 45 256 146 14 46 15 61 5 106 -15 63 -51 112 -101 137
-41 21 -155 33 -211 23z m169 -118 c54 -38 57 -127 6 -171 -20 -17 -39 -23
-77 -23 l-51 0 7 61 c3 34 6 82 6 105 l0 44 43 0 c23 0 53 -7 66 -16z"/>
<path d="M5385 1267 c-19 -14 -20 -27 -20 -197 0 -221 -4 -214 127 -207 62 3
99 11 132 27 118 57 140 242 39 330 -48 42 -73 51 -173 57 -67 4 -89 2 -105
-10z m156 -97 c51 -14 84 -53 84 -99 0 -74 -39 -111 -114 -111 l-39 0 -4 63
c-2 34 -2 83 0 110 4 52 10 54 73 37z"/>
<path d="M5825 1273 c-11 -3 -23 -10 -27 -17 -4 -6 -8 -89 -8 -183 0 -164 1
-174 21 -194 20 -20 29 -21 109 -16 152 10 221 65 228 183 4 54 0 72 -22 117
-15 29 -42 62 -60 75 -47 32 -176 51 -241 35z m186 -131 c24 -21 32 -38 36
-74 5 -42 3 -50 -25 -78 -26 -25 -38 -30 -81 -30 l-51 0 0 105 0 105 45 0 c35
0 52 -6 76 -28z"/>
<path d="M6192 1264 c-12 -8 -22 -19 -22 -24 0 -5 25 -45 55 -90 79 -116 85
-131 85 -204 0 -56 3 -67 21 -76 29 -16 65 -5 73 22 3 13 6 50 6 84 0 57 3 66
48 130 27 38 57 84 66 103 17 32 17 34 -2 54 -33 33 -63 16 -116 -64 l-48 -71
-44 65 c-40 60 -68 87 -91 87 -5 0 -19 -7 -31 -16z"/>
</g>
</svg>
